<?xml version="1.0" standalone="no"?>
<!DOCTYPE svg PUBLIC "-//W3C//DTD SVG 20010904//EN"
 "http://www.w3.org/TR/2001/REC-SVG-20010904/DTD/svg10.dtd">
<svg version="1.0" xmlns="http://www.w3.org/2000/svg"
 width="200.000000pt" height="200.000000pt" viewBox="0 0 200.000000 200.000000"
 preserveAspectRatio="xMidYMid meet">

<g transform="translate(0.000000,200.000000) scale(0.100000,-0.100000)"
fill="#000000" stroke="none">
<path d="M905 1390 l-390 -390 393 -392 392 -393 92 93 93 92 -300 300 -300
300 300 300 300 300 -90 90 c-49 49 -92 90 -95 90 -3 0 -181 -176 -395 -390z
m465 275 l65 -65 -300 -300 -300 -300 300 -300 300 -300 -68 -67 -67 -68 -368
368 -367 367 365 365 c201 201 367 365 370 365 3 0 35 -29 70 -65z"/>
<path d="M1065 1430 c-93 -93 -166 -173 -162 -177 8 -7 347 325 347 339 0 20
-27 -3 -185 -162z"/>
<path d="M755 1120 c-21 -22 -36 -43 -32 -47 8 -7 87 65 87 79 0 17 -17 7 -55
-32z"/>
<path d="M655 1020 c-10 -11 -15 -23 -12 -27 8 -7 47 25 47 39 0 14 -16 9 -35
-12z"/>
<path d="M750 892 c0 -14 489 -496 497 -489 7 8 -475 497 -489 497 -5 0 -8 -3
-8 -8z"/>
</g>
</svg>
